<svg xmlns="http://www.w3.org/2000/svg" viewBox="0 0 1533.35 1537.6"><path d="M1302,747.28c-4-156.72-49-298.36-149.51-421.45C987.62,124,695.72,77.93,482.71,228.19,289.26,364.64,217.82,562.11,226,791.75c3.46,97.32,45,184,94.82,266,112.93,185.79,265,336.27,430.55,474.48,10,8.34,15.66,6.27,24.5-1,48.19-39.51,94.95-80.61,139.77-123.89,109.4-105.63,211.38-217.53,289.47-349C1262,962.52,1305.45,862.21,1302,747.28ZM703.91,1161.77c-23,11.27-47.42,13.13-72.66,12.59-127-5.76-216.61-68.68-274.18-180.3a370.26,370.26,0,0,1-37.63-116.78C306,786,359.7,758.7,434.43,775.89c59,13.56,101.56,53,138.72,98.31,49,59.77,94.28,122.17,128.83,191.68,10.32,20.76,19.93,41.79,20.63,65.78C723,1146.33,716.88,1155.43,703.91,1161.77Zm192.3,12.39c-19.34.49-40.73-1.43-61.4-9.69s-28.73-21.46-23.74-43.93c11.64-52.47,40.21-96.61,69.57-139.79,41.27-60.71,82-122.47,141.75-167.59,36-27.23,75.75-45,122.67-41.55,43.86,3.26,66.78,26.06,69,70C1222.82,1011.88,1068.37,1174.76,896.21,1174.16Z" fill="#ccc"/><path d="M1508.8,652.65c-4.09-7.76-56.18-11.06-68.94-13.26-1.53-11.16-31-307.43-234.24-479.47C1117.47,75.52,985.71,5,788.16.27,263.74-12.3,132.78,416.52,109.8,543.16,101.7,587.84,98.35,608,97,617c-13,1.94-65.82,5.23-70.39,12.46-66.79,105.55,7.61,378,55.65,388,22.36,4.64,152.76-11.08,146.76-26.31-30.71-77.91-67.7-215.49-39.68-356,2.06-10.35-34.09-15.52-34.09-15.52a542.74,542.74,0,0,1,10.89-82.44,583.7,583.7,0,0,1,20.41-70.49c5.37-.65,22.33-8.13,28.59-13.65,12.79-11.28,32.82-48.63,32.82-48.63S388.43,90.65,755,89.62c60.43-.17,114.11,5.47,161.92,15.41,267,68.93,367.65,308.51,367.65,308.51s17.61,36.3,28.32,49.16c12.16,14.61,27.29,20.59,33.71,21,9.85,18,15.89,39.3,20.21,63.27,7.67,42.62,14.78,93.56,14.78,93.56s-35.92,4.12-34.49,14.58c15.83,116.1,4.89,228.93-49.19,357.38-6.35,15.09,120.6,27.92,143.44,28C1477.46,1040.52,1579.94,787.67,1508.8,652.65Z" fill="#ccc"/></svg>