<svg width="685" height="116" viewBox="0 0 685 116" fill="none" xmlns="http://www.w3.org/2000/svg">
  <path d="M31.4375 79.4045H13.4375V91.592H34.5625V99.1232H4.0625V53.6232H34.5V61.217H13.4375V72.0607H31.4375V79.4045ZM52.3438 75.4045L58.0312 65.3107H67.6875L58.0625 81.8732L68.0938 99.1232H58.4062L52.375 88.4982L46.375 99.1232H36.6562L46.6875 81.8732L37.0938 65.3107H46.7812L52.3438 75.4045ZM85.4688 92.467C87.1354 92.467 88.4896 92.0086 89.5312 91.092C90.5729 90.1753 91.1146 88.9566 91.1562 87.4357H99.625C99.6042 89.7274 98.9792 91.8316 97.75 93.7482C96.5208 95.6441 94.8333 97.1232 92.6875 98.1857C90.5625 99.2274 88.2083 99.7482 85.625 99.7482C80.7917 99.7482 76.9792 98.217 74.1875 95.1545C71.3958 92.0711 70 87.8211 70 82.4045V81.8107C70 76.6024 71.3854 72.4461 74.1562 69.342C76.9271 66.2378 80.7292 64.6857 85.5625 64.6857C89.7917 64.6857 93.1771 65.8941 95.7188 68.3107C98.2812 70.7066 99.5833 73.9045 99.625 77.9045H91.1562C91.1146 76.1545 90.5729 74.7378 89.5312 73.6545C88.4896 72.5503 87.1146 71.9982 85.4062 71.9982C83.3021 71.9982 81.7083 72.7691 80.625 74.3107C79.5625 75.8316 79.0312 78.3107 79.0312 81.7482V82.6857C79.0312 86.1649 79.5625 88.6649 80.625 90.1857C81.6875 91.7066 83.3021 92.467 85.4688 92.467ZM120.344 99.7482C115.385 99.7482 111.344 98.2274 108.219 95.1857C105.115 92.1441 103.562 88.092 103.562 83.0295V82.1545C103.562 78.7586 104.219 75.7274 105.531 73.0607C106.844 70.3732 108.698 68.3107 111.094 66.8732C113.51 65.4149 116.26 64.6857 119.344 64.6857C123.969 64.6857 127.604 66.1441 130.25 69.0607C132.917 71.9774 134.25 76.1128 134.25 81.467V85.1545H112.719C113.01 87.3628 113.885 89.1336 115.344 90.467C116.823 91.8003 118.688 92.467 120.938 92.467C124.417 92.467 127.135 91.2066 129.094 88.6857L133.531 93.6545C132.177 95.5711 130.344 97.0711 128.031 98.1545C125.719 99.217 123.156 99.7482 120.344 99.7482ZM119.312 71.9982C117.521 71.9982 116.062 72.6024 114.938 73.8107C113.833 75.0191 113.125 76.7482 112.812 78.9982H125.375V78.2795C125.333 76.2795 124.792 74.7378 123.75 73.6545C122.708 72.5503 121.229 71.9982 119.312 71.9982ZM148.938 99.1232H139.875V51.1232H148.938V99.1232ZM171.969 99.7482C167.01 99.7482 162.969 98.2274 159.844 95.1857C156.74 92.1441 155.188 88.092 155.188 83.0295V82.1545C155.188 78.7586 155.844 75.7274 157.156 73.0607C158.469 70.3732 160.323 68.3107 162.719 66.8732C165.135 65.4149 167.885 64.6857 170.969 64.6857C175.594 64.6857 179.229 66.1441 181.875 69.0607C184.542 71.9774 185.875 76.1128 185.875 81.467V85.1545H164.344C164.635 87.3628 165.51 89.1336 166.969 90.467C168.448 91.8003 170.312 92.467 172.562 92.467C176.042 92.467 178.76 91.2066 180.719 88.6857L185.156 93.6545C183.802 95.5711 181.969 97.0711 179.656 98.1545C177.344 99.217 174.781 99.7482 171.969 99.7482ZM170.938 71.9982C169.146 71.9982 167.688 72.6024 166.562 73.8107C165.458 75.0191 164.75 76.7482 164.438 78.9982H177V78.2795C176.958 76.2795 176.417 74.7378 175.375 73.6545C174.333 72.5503 172.854 71.9982 170.938 71.9982ZM181.938 59.8732V60.2482H174.75L169.938 55.717L165.125 60.2482H158.062V59.7482L167.312 51.1232H172.562L181.938 59.8732ZM199.344 65.3107L199.625 69.217C202.042 66.1961 205.281 64.6857 209.344 64.6857C212.927 64.6857 215.594 65.7378 217.344 67.842C219.094 69.9461 219.99 73.092 220.031 77.2795V99.1232H211V77.4982C211 75.5816 210.583 74.1961 209.75 73.342C208.917 72.467 207.531 72.0295 205.594 72.0295C203.052 72.0295 201.146 73.1128 199.875 75.2795V99.1232H190.844V65.3107H199.344ZM240.969 92.467C242.635 92.467 243.99 92.0086 245.031 91.092C246.073 90.1753 246.615 88.9566 246.656 87.4357H255.125C255.104 89.7274 254.479 91.8316 253.25 93.7482C252.021 95.6441 250.333 97.1232 248.188 98.1857C246.062 99.2274 243.708 99.7482 241.125 99.7482C236.292 99.7482 232.479 98.217 229.688 95.1545C226.896 92.0711 225.5 87.8211 225.5 82.4045V81.8107C225.5 76.6024 226.885 72.4461 229.656 69.342C232.427 66.2378 236.229 64.6857 241.062 64.6857C245.292 64.6857 248.677 65.8941 251.219 68.3107C253.781 70.7066 255.083 73.9045 255.125 77.9045H246.656C246.615 76.1545 246.073 74.7378 245.031 73.6545C243.99 72.5503 242.615 71.9982 240.906 71.9982C238.802 71.9982 237.208 72.7691 236.125 74.3107C235.062 75.8316 234.531 78.3107 234.531 81.7482V82.6857C234.531 86.1649 235.062 88.6649 236.125 90.1857C237.188 91.7066 238.802 92.467 240.969 92.467ZM269.812 99.1232H260.75V65.3107H269.812V99.1232ZM260.219 56.5607C260.219 55.2066 260.667 54.092 261.562 53.217C262.479 52.342 263.719 51.9045 265.281 51.9045C266.823 51.9045 268.052 52.342 268.969 53.217C269.885 54.092 270.344 55.2066 270.344 56.5607C270.344 57.9357 269.875 59.0607 268.938 59.9357C268.021 60.8107 266.802 61.2482 265.281 61.2482C263.76 61.2482 262.531 60.8107 261.594 59.9357C260.677 59.0607 260.219 57.9357 260.219 56.5607ZM296.875 99.1232C296.458 98.3107 296.156 97.3003 295.969 96.092C293.781 98.5295 290.938 99.7482 287.438 99.7482C284.125 99.7482 281.375 98.7899 279.188 96.8732C277.021 94.9566 275.938 92.5399 275.938 89.6232C275.938 86.0399 277.26 83.2899 279.906 81.3732C282.573 79.4566 286.417 78.4878 291.438 78.467H295.594V76.5295C295.594 74.967 295.188 73.717 294.375 72.7795C293.583 71.842 292.323 71.3732 290.594 71.3732C289.073 71.3732 287.875 71.7378 287 72.467C286.146 73.1961 285.719 74.1961 285.719 75.467H276.688C276.688 73.5086 277.292 71.6961 278.5 70.0295C279.708 68.3628 281.417 67.0607 283.625 66.1232C285.833 65.1649 288.312 64.6857 291.062 64.6857C295.229 64.6857 298.531 65.7378 300.969 67.842C303.427 69.9253 304.656 72.8628 304.656 76.6545V91.3107C304.677 94.5191 305.125 96.9461 306 98.592V99.1232H296.875ZM289.406 92.842C290.74 92.842 291.969 92.5503 293.094 91.967C294.219 91.3628 295.052 90.5607 295.594 89.5607V83.7482H292.219C287.698 83.7482 285.292 85.3107 285 88.4357L284.969 88.967C284.969 90.092 285.365 91.0191 286.156 91.7482C286.948 92.4774 288.031 92.842 289.406 92.842ZM343.094 99.7482C338.135 99.7482 334.094 98.2274 330.969 95.1857C327.865 92.1441 326.312 88.092 326.312 83.0295V82.1545C326.312 78.7586 326.969 75.7274 328.281 73.0607C329.594 70.3732 331.448 68.3107 333.844 66.8732C336.26 65.4149 339.01 64.6857 342.094 64.6857C346.719 64.6857 350.354 66.1441 353 69.0607C355.667 71.9774 357 76.1128 357 81.467V85.1545H335.469C335.76 87.3628 336.635 89.1336 338.094 90.467C339.573 91.8003 341.438 92.467 343.688 92.467C347.167 92.467 349.885 91.2066 351.844 88.6857L356.281 93.6545C354.927 95.5711 353.094 97.0711 350.781 98.1545C348.469 99.217 345.906 99.7482 343.094 99.7482ZM342.062 71.9982C340.271 71.9982 338.812 72.6024 337.688 73.8107C336.583 75.0191 335.875 76.7482 335.562 78.9982H348.125V78.2795C348.083 76.2795 347.542 74.7378 346.5 73.6545C345.458 72.5503 343.979 71.9982 342.062 71.9982ZM370.625 65.3107L370.906 69.092C373.302 66.1545 376.542 64.6857 380.625 64.6857C384.979 64.6857 387.969 66.4045 389.594 69.842C391.969 66.4045 395.354 64.6857 399.75 64.6857C403.417 64.6857 406.146 65.7586 407.938 67.9045C409.729 70.0295 410.625 73.2378 410.625 77.5295V99.1232H401.562V77.5607C401.562 75.6441 401.188 74.2482 400.438 73.3732C399.688 72.4774 398.365 72.0295 396.469 72.0295C393.76 72.0295 391.885 73.3211 390.844 75.9045L390.875 99.1232H381.844V77.592C381.844 75.6336 381.458 74.217 380.688 73.342C379.917 72.467 378.604 72.0295 376.75 72.0295C374.188 72.0295 372.333 73.092 371.188 75.217V99.1232H362.156V65.3107H370.625ZM461.5 79.4045H443.5V91.592H464.625V99.1232H434.125V53.6232H464.562V61.217H443.5V72.0607H461.5V79.4045ZM477.844 65.3107L478.125 69.217C480.542 66.1961 483.781 64.6857 487.844 64.6857C491.427 64.6857 494.094 65.7378 495.844 67.842C497.594 69.9461 498.49 73.092 498.531 77.2795V99.1232H489.5V77.4982C489.5 75.5816 489.083 74.1961 488.25 73.342C487.417 72.467 486.031 72.0295 484.094 72.0295C481.552 72.0295 479.646 73.1128 478.375 75.2795V99.1232H469.344V65.3107H477.844ZM523.719 89.7795C523.719 88.6753 523.167 87.8107 522.062 87.1857C520.979 86.5399 519.229 85.967 516.812 85.467C508.771 83.7795 504.75 80.3628 504.75 75.217C504.75 72.217 505.99 69.717 508.469 67.717C510.969 65.6961 514.229 64.6857 518.25 64.6857C522.542 64.6857 525.969 65.6961 528.531 67.717C531.115 69.7378 532.406 72.3628 532.406 75.592H523.375C523.375 74.3003 522.958 73.2378 522.125 72.4045C521.292 71.5503 519.99 71.1232 518.219 71.1232C516.698 71.1232 515.521 71.467 514.688 72.1545C513.854 72.842 513.438 73.717 513.438 74.7795C513.438 75.7795 513.906 76.592 514.844 77.217C515.802 77.8211 517.406 78.3524 519.656 78.8107C521.906 79.2482 523.802 79.7482 525.344 80.3107C530.115 82.0607 532.5 85.092 532.5 89.4045C532.5 92.4878 531.177 94.9878 528.531 96.9045C525.885 98.8003 522.469 99.7482 518.281 99.7482C515.448 99.7482 512.927 99.2482 510.719 98.2482C508.531 97.2274 506.812 95.842 505.562 94.092C504.312 92.3211 503.688 90.4149 503.688 88.3732H512.25C512.333 89.9774 512.927 91.2066 514.031 92.0607C515.135 92.9149 516.615 93.342 518.469 93.342C520.198 93.342 521.5 93.0191 522.375 92.3732C523.271 91.7066 523.719 90.842 523.719 89.7795ZM547.875 99.1232H538.812V65.3107H547.875V99.1232ZM538.281 56.5607C538.281 55.2066 538.729 54.092 539.625 53.217C540.542 52.342 541.781 51.9045 543.344 51.9045C544.885 51.9045 546.115 52.342 547.031 53.217C547.948 54.092 548.406 55.2066 548.406 56.5607C548.406 57.9357 547.938 59.0607 547 59.9357C546.083 60.8107 544.865 61.2482 543.344 61.2482C541.823 61.2482 540.594 60.8107 539.656 59.9357C538.74 59.0607 538.281 57.9357 538.281 56.5607ZM563.656 65.3107L563.938 69.217C566.354 66.1961 569.594 64.6857 573.656 64.6857C577.24 64.6857 579.906 65.7378 581.656 67.842C583.406 69.9461 584.302 73.092 584.344 77.2795V99.1232H575.312V77.4982C575.312 75.5816 574.896 74.1961 574.062 73.342C573.229 72.467 571.844 72.0295 569.906 72.0295C567.365 72.0295 565.458 73.1128 564.188 75.2795V99.1232H555.156V65.3107H563.656ZM589.812 81.9045C589.812 78.5503 590.458 75.5607 591.75 72.9357C593.042 70.3107 594.896 68.2795 597.312 66.842C599.75 65.4045 602.573 64.6857 605.781 64.6857C610.344 64.6857 614.062 66.0816 616.938 68.8732C619.833 71.6649 621.448 75.4566 621.781 80.2482L621.844 82.5607C621.844 87.7482 620.396 91.9149 617.5 95.0607C614.604 98.1857 610.719 99.7482 605.844 99.7482C600.969 99.7482 597.073 98.1857 594.156 95.0607C591.26 91.9357 589.812 87.6857 589.812 82.3107V81.9045ZM598.844 82.5607C598.844 85.7691 599.448 88.2274 600.656 89.9357C601.865 91.6232 603.594 92.467 605.844 92.467C608.031 92.467 609.74 91.6336 610.969 89.967C612.198 88.2795 612.812 85.592 612.812 81.9045C612.812 78.7586 612.198 76.3211 610.969 74.592C609.74 72.8628 608.01 71.9982 605.781 71.9982C603.573 71.9982 601.865 72.8628 600.656 74.592C599.448 76.3003 598.844 78.9566 598.844 82.5607Z" fill="#002E44"/>
  <path d="M676.549 51.076L638.101 18.7025C637.586 18.2686 636.933 18.0182 636.25 17.9931L585.299 16.11C584.032 16.0631 582.872 16.7929 582.403 17.9315C581.935 19.0702 582.259 20.3707 583.213 21.1777L621.613 53.6671C621.872 53.8862 622.166 54.0589 622.482 54.1796C622.797 54.3004 623.133 54.3694 623.477 54.3812L674.476 56.1485C675.743 56.1925 676.901 55.4601 677.367 54.3204C677.832 53.1806 677.505 51.8809 676.549 51.076Z" fill="#B1FE81"/>
  <path d="M657.002 85.1244L666.622 61.666L660.274 61.446L651.438 82.9922C649.38 83.2825 647.534 84.5969 646.712 86.6005C645.891 88.6039 646.304 90.784 647.597 92.3587L642.177 105.575C641.568 107.061 642.32 108.742 643.857 109.331C645.393 109.919 647.132 109.193 647.742 107.707L653.161 94.491C655.22 94.2009 657.066 92.8862 657.887 90.8828C658.709 88.8792 658.296 86.6991 657.002 85.1244Z" fill="#B1FE81"/>
  <path d="M617.007 58.7778L617.007 58.7778C617.865 59.5036 618.838 60.0778 619.896 60.4835C620.955 60.8893 622.071 61.1153 623.21 61.1549L623.21 61.1549L650.466 62.0993L646.146 72.6337C645.706 73.7056 644.692 74.5836 642.825 75.1494C640.943 75.7198 638.31 75.9307 634.888 75.7201C628.944 75.3544 622.046 73.7736 615.478 71.2569C608.911 68.7402 602.766 65.3229 598.177 61.6531L597.534 62.4271L598.177 61.653C595.535 59.5396 593.767 57.6425 592.8 55.9804C591.841 54.3315 591.725 53.0206 592.165 51.9487L596.485 41.4143L617.007 58.7778Z" fill="#B1FE81" stroke="white" stroke-width="2"/>
  </svg>
