<svg viewBox="1 -20 511.99979 511" xmlns="http://www.w3.org/2000/svg"><path d="m152.304688 329.121094-37.605469 114.824218c-4.308594 13.15625-18.464844 20.328126-31.621094 16.019532-12.335937-4.042969-19.546875-16.835938-16.613281-29.484375l45.839844-196.207031zm0 0" fill="#7d9bff"/><path d="m192.304688 135.859375c0-22.09375-17.910157-40-40-40-11.03125 0-21.019532 4.464844-28.253907 11.683594l-.03125-.03125-107.152343 107.152343c-7.8125 7.8125-7.8125 20.476563 0 28.285157 7.808593 7.8125 20.472656 7.8125 28.285156 0l67.152344-67.152344v50.914063c0 2.269531.082031 4.539062.238281 6.792968h79.761719zm0 0" fill="#feda9b"/><path d="m205.0625 285.425781-1.785156-3.203125c-7.148438-12.828125-10.925782-27.261718-10.972656-41.949218v-8h-79.761719c1.164062 17.054687 6.683593 33.5625 16.089843 47.921874l57.242188 87.363282zm0 0" fill="#7d9bff"/><path d="m255.992188 329.121094-37.605469 114.824218c-4.308594 13.15625-18.464844 20.328126-31.617188 16.019532-12.339843-4.042969-19.550781-16.835938-16.617187-29.484375l45.839844-196.207031zm0 0" fill="#7d9bff"/><path d="m295.992188 135.859375c0-22.09375-17.90625-40-40-40-11.03125 0-21.015626 4.464844-28.253907 11.683594l-.03125-.03125-107.152343 107.152343c-7.808594 7.8125-7.808594 20.476563 0 28.285157 7.8125 7.8125 20.476562 7.8125 28.285156 0l67.152344-67.152344v50.914063c0 2.269531.085937 4.539062.238281 6.792968h79.761719zm0 0" fill="#feda9b"/><path d="m308.753906 285.425781-1.785156-3.203125c-7.152344-12.828125-10.925781-27.261718-10.972656-41.949218v-8h-79.765625c1.164062 17.054687 6.683593 33.5625 16.09375 47.921874l57.242187 87.363282zm0 0" fill="#7d9bff"/><path d="m360.703125 330.355469-37.605469 114.824219c-4.308594 13.15625-18.464844 20.324218-31.617187 16.019531-12.339844-4.042969-19.550781-16.835938-16.617188-29.484375l45.839844-196.210938zm0 0" fill="#6a80ff"/><path d="m402.324219 177.421875 65.53125 65.53125c7.8125 7.808594 20.476562 7.808594 28.285156 0 7.8125-7.8125 7.8125-20.476563 0-28.285156l-107.152344-107.152344zm0 0" fill="#ffb954"/><path d="m400.703125 135.859375c0-22.09375-17.90625-40-40-40-11.03125 0-21.015625 4.464844-28.253906 11.683594l-.03125-.03125-107.152344 107.152343c-7.808594 7.8125-7.808594 20.476563 0 28.285157 7.808594 7.8125 20.476563 7.8125 28.285156 0l67.152344-67.152344v50.914063c0 2.269531.085937 4.539062.238281 6.792968h79.761719zm0 0" fill="#ffb954"/><path d="m445.492188 446.957031c6.496093 11.242188 20.503906 15.660157 32.273437 10.183594 12.550781-5.839844 17.992187-20.746094 12.15625-33.296875l-78.246094-140.386719c-7.148437-12.828125-10.925781-27.265625-10.972656-41.949219v-8h-79.761719c1.164063 17.050782 6.683594 33.5625 16.089844 47.921876zm0 0" fill="#6a80ff"/><g fill="#ffcdac"><path d="m377.703125 10.5c21.101563 0 38.207031 17.105469 38.207031 38.207031v8.945313c0 21.101562-17.105468 38.203125-38.207031 38.203125s-38.203125-17.105469-38.203125-38.203125v-8.945313c0-21.101562 17.101562-38.207031 38.203125-38.207031zm0 0"/><path d="m272.992188 10.5c21.101562 0 38.207031 17.105469 38.207031 38.207031v8.945313c0 21.101562-17.105469 38.203125-38.207031 38.203125-21.097657 0-38.203126-17.105469-38.203126-38.203125v-8.945313c0-21.101562 17.105469-38.207031 38.203126-38.207031zm0 0"/><path d="m168.28125 10.5c21.101562 0 38.207031 17.105469 38.207031 38.207031v8.945313c0 21.101562-17.105469 38.203125-38.207031 38.203125-21.097656 0-38.203125-17.105469-38.203125-38.203125v-8.945313c0-21.101562 17.105469-38.207031 38.203125-38.207031zm0 0"/></g><path d="m482 258.808594c8.011719 0 15.546875-3.121094 21.210938-8.785156 5.667968-5.667969 8.789062-13.199219 8.789062-21.214844s-3.121094-15.546875-8.789062-21.214844l-105.914063-105.914062c16.839844-7.523438 28.613281-24.421876 28.613281-44.027344v-8.945313c0-26.582031-21.625-48.207031-48.207031-48.207031-26.578125 0-48.207031 21.625-48.207031 48.207031v8.945313c0 12.25 4.605468 23.441406 12.160156 31.953125-5.695312 2.347656-10.957031 5.753906-15.523438 10.128906-.269531.21875-.535156.457031-.789062.707031l-21.371094 21.375c-2.230468-7.601562-6.214844-14.453125-11.488281-20.089844 16.894531-7.503906 28.714844-24.429687 28.714844-44.074218v-8.945313c0-26.582031-21.628907-48.207031-48.207031-48.207031-26.582032 0-48.207032 21.625-48.207032 48.207031v8.945313c0 12.25 4.601563 23.441406 12.15625 31.953125-5.695312 2.347656-10.953125 5.753906-15.523437 10.128906-.269531.21875-.53125.457031-.78125.707031l-21.375 21.375c-2.230469-7.601562-6.214844-14.453125-11.488281-20.089844 16.894531-7.503906 28.714843-24.429687 28.714843-44.074218v-8.945313c0-26.582031-21.628906-48.207031-48.207031-48.207031-26.582031 0-48.207031 21.625-48.207031 48.207031v8.945313c0 12.25 4.601562 23.441406 12.15625 31.953125-5.695313 2.347656-10.953125 5.753906-15.523438 10.128906-.269531.222656-.53125.457031-.78125.707031l-36.984375 36.984375c-3.90625 3.90625-3.90625 10.238281 0 14.144531 1.953125 1.949219 4.511719 2.929688 7.070313 2.929688 2.558593 0 5.121093-.980469 7.074219-2.929688l36.320312-36.324218c.234375-.195313.464844-.402344.683594-.621094 5.667968-5.652344 13.191406-8.765625 21.191406-8.765625 16.542969 0 30 13.457031 30 30v3.9375l-60 60v-23.996094c0-4.046875-2.4375-7.691406-6.171875-9.238281-3.738281-1.546875-8.039063-.691406-10.898437 2.167969l-67.152344 67.148437c-3.898438 3.902344-10.242188 3.902344-14.144532 0-3.898437-3.898437-3.898437-10.242187 0-14.140625l17.417969-17.417969c3.90625-3.90625 3.90625-10.238281 0-14.144531-3.902343-3.902343-10.238281-3.902343-14.140625 0l-17.417968 17.417969c-11.699219 11.699219-11.699219 30.730469 0 42.429688 11.699218 11.695312 30.730468 11.695312 42.425781 0l50.082031-50.082032v26.769532c0 2.246093.085938 4.476562.21875 6.707031l-45.800781 196.039062c-4.132813 17.820313 5.859375 35.550781 23.246093 41.242188 3.589844 1.179687 7.277344 1.761719 10.949219 1.761719 5.429688 0 10.824219-1.277344 15.808594-3.804688 8.355469-4.230469 14.5625-11.464844 17.46875-20.332031l34.203125-103.226563 16.765625 25.589844-13.730469 58.769531c-4.132812 17.820313 5.859375 35.550781 23.246094 41.242188 3.589844 1.175781 7.277344 1.761719 10.949219 1.761719 5.429687 0 10.824219-1.277344 15.808593-3.804688 8.355469-4.230469 14.5625-11.464844 17.46875-20.332031l34.203126-103.226563 16.765624 25.589844-13.730468 58.769531c-4.132813 17.820313 5.859375 35.550781 23.246094 41.242188 3.613281 1.1875 7.28125 1.746093 10.890624 1.746093 14.75 0 28.507813-9.386718 33.335938-24.121093l34.203125-103.226563 70.191406 107.125c6.515625 11.0625 18.066407 17.308594 30.101563 17.308594 4.992187 0 10.066406-1.074219 14.898437-3.324219 17.527344-8.15625 25.15625-29.050781 17-46.582031-.101562-.21875-.210937-.4375-.332031-.648438l-33.257812-59.679687c-2.6875-4.824219-8.777344-6.550781-13.605469-3.867187-4.824219 2.691406-6.554688 8.78125-3.867188 13.605468l33.0625 59.316406c3.285157 7.472657-.003906 16.265626-7.4375 19.722657-7.125 3.3125-15.464843.683593-19.398437-6.121094-.09375-.160156-.1875-.320313-.292969-.476563l-108.460937-165.527343c-6.503907-9.925781-10.925782-20.933594-13.109376-32.441407h58.453126c.371093 15.664063 4.566406 31.117188 12.199218 44.816407l9.175782 16.460937c2.6875 4.824219 8.777343 6.554688 13.605468 3.867188 4.824219-2.6875 6.554688-8.777344 3.867188-13.601563l-9.175782-16.464843c-6.308593-11.320313-9.667968-24.152344-9.707031-37.082032v-41.5625l50.078125 50.082032c5.667969 5.664062 13.199219 8.785156 21.214844 8.785156zm-341.921875-210.101563c0-15.554687 12.652344-28.207031 28.203125-28.207031 15.554688 0 28.207031 12.652344 28.207031 28.207031v8.945313c0 15.550781-12.652343 28.203125-28.207031 28.203125-15.550781 0-28.203125-12.652344-28.203125-28.203125zm209.421875 0c0-15.554687 12.652344-28.207031 28.203125-28.207031 15.554687 0 28.207031 12.652344 28.207031 28.207031v8.945313c0 15.550781-12.652344 28.203125-28.207031 28.203125-15.550781 0-28.203125-12.652344-28.203125-28.203125zm-10.671875 66.539063c.234375-.195313.464844-.402344.6875-.625 5.664063-5.648438 13.1875-8.765625 21.1875-8.765625 16.542969 0 30.003906 13.460937 30.003906 30.003906v87.648437h-60.003906v-47.707031c0-4.046875-2.4375-7.691406-6.171875-9.242187-3.738281-1.542969-8.039062-.6875-10.898438 2.167968l-67.152343 67.152344c-1.890625 1.890625-4.398438 2.929688-7.070313 2.929688s-5.183594-1.039063-7.070312-2.929688c-1.890625-1.886718-2.929688-4.398437-2.929688-7.070312s1.039063-5.183594 2.929688-7.070313zm-94.039063-66.539063c0-15.554687 12.652344-28.207031 28.203126-28.207031 15.554687 0 28.207031 12.652344 28.207031 28.207031v8.945313c0 15.550781-12.652344 28.203125-28.207031 28.203125-15.550782 0-28.203126-12.652344-28.203126-28.203125zm-117.164062 173.03125 106.492188-106.492187c.234374-.195313.464843-.402344.683593-.625 5.667969-5.648438 13.191407-8.765625 21.191407-8.765625 16.542968 0 30 13.460937 30 30.003906v3.933594l-60 60.003906v-24c0-4.042969-2.4375-7.6875-6.171876-9.238281-3.738281-1.546875-8.039062-.691406-10.898437 2.167968l-67.152344 67.152344c-3.898437 3.898438-10.246093 3.898438-14.144531 0-3.898438-3.898437-3.898438-10.242187 0-14.140625zm15.1875 103.71875-38.640625 116.609375c-1.25 3.824219-3.917969 6.933594-7.507813 8.75-3.585937 1.816406-7.671874 2.128906-11.496093.875-7.46875-2.441406-11.761719-10.0625-9.988281-17.699218l37.195312-159.207032c2.027344 4.160156 4.308594 8.214844 6.871094 12.125l24.242187 36.992188c-.261719.496094-.496093 1.007812-.675781 1.554687zm-6.835938-49.507812c-3.761718-5.738281-6.816406-11.839844-9.15625-18.1875 2.535157.683593 5.179688 1.046875 7.878907 1.046875 8.011719 0 15.546875-3.121094 21.210937-8.785156l50.082032-50.082032v26.769532c0 2.242187.082031 4.476562.21875 6.703124l-25.785157 110.371094zm111.546876 49.507812-38.640626 116.609375c-1.25 3.824219-3.917968 6.933594-7.507812 8.75s-7.671875 2.128906-11.496094.875c-7.46875-2.441406-11.761718-10.0625-9.988281-17.699218l37.191406-159.207032c2.03125 4.160156 4.3125 8.214844 6.875 12.125l24.238281 36.992188c-.261718.492187-.492187 1.007812-.671874 1.554687zm-6.835938-49.507812c-3.761719-5.738281-6.816406-11.839844-9.15625-18.1875 2.535156.683593 5.179688 1.046875 7.878906 1.046875 8.011719 0 15.546875-3.121094 21.210938-8.785156l50.082031-50.082032v26.769532c0 1.742187.054687 3.476562.136719 5.210937-.082032.515625-.136719 1.042969-.136719 1.585937 0 .234376.019531.464844.035156.695313l-25.601562 109.582031zm112.222656 47.953125c-.265625.492187-.496094 1.007812-.679687 1.554687l-38.636719 116.609375c-2.585938 7.894532-11.113281 12.214844-19.003906 9.625-7.46875-2.441406-11.761719-10.0625-9.988282-17.699218l37.195313-159.207032c2.027344 4.160156 4.308594 8.214844 6.871094 12.125zm57.792969-180.53125 78.367187 78.367187c3.898438 3.898438 3.898438 10.242188 0 14.140625-3.898437 3.898438-10.242187 3.898438-14.140624 0l-64.226563-64.222656zm0 0"/><path d="m432.347656 326.167969c-1.859375 1.859375-2.929687 4.4375-2.929687 7.070312 0 2.628907 1.070312 5.207031 2.929687 7.070313 1.859375 1.859375 4.441406 2.929687 7.070313 2.929687 2.640625 0 5.21875-1.070312 7.078125-2.929687 1.863281-1.863282 2.921875-4.441406 2.921875-7.070313 0-2.632812-1.058594-5.210937-2.921875-7.070312-1.867188-1.871094-4.4375-2.929688-7.078125-2.929688-2.628907 0-5.199219 1.058594-7.070313 2.929688zm0 0"/><path d="m60.527344 181.003906c2.628906 0 5.210937-1.0625 7.070312-2.921875 1.859375-1.867187 2.929688-4.4375 2.929688-7.070312 0-2.640625-1.070313-5.207031-2.929688-7.066407-1.859375-1.871093-4.441406-2.933593-7.070312-2.933593-2.640625 0-5.21875 1.0625-7.070313 2.933593-1.871093 1.847657-2.929687 4.429688-2.929687 7.066407 0 2.632812 1.058594 5.210937 2.929687 7.070312 1.851563 1.859375 4.429688 2.921875 7.070313 2.921875zm0 0"/></svg>